# xmcd
#
# Track frame offsets:
#	150
#	18722
#	33954
#	48572
#	65075
#	85601
#	102331
#	118527
#	135617
#	150986
#	166745
#	185980
#	201317
#	220450
#	234005
#	250107
#	265598
#	285212
#	300910
#	316393
#
# Disc length: 4494 seconds
#
# Revision: 0
# Processed by: cddbd v1.5.2PL0 Copyright (c) Steve Scherf et al.
# Submitted via: EasyCDDAExtractor 16.0.9.1
#
DISCID=0a118c14
DTITLE=Hott Urban Volume 8 CAN
DYEAR=2015
DGENRE=blues
TTITLE0=The Weeknd - Acquainted [Radio Edit]
TTITLE1=Chris Brown - Back To Sleep
TTITLE2=Missy Elliott ft. Pharrell Williams - WTF (Where They From)
TTITLE3=Jacquees - Like Baby
TTITLE4=T.I. ft. Young Thug and Young Dro - Peaut Butter Jelly
TTITLE5=Wiz Khalifa - King Of Everything
TTITLE6=Tate Kobang - Bank Rolls
TTITLE7=Jadakiss ft. Ne-Yo and Nipsey Hussle - Ain't Nothin' New
TTITLE8=Young Greatness - Moolah
TTITLE9=Rotimi ft. 50 Cent - Lotto
TTITLE10=Adele - Hello
TTITLE11=Omarion ft. Rich Homie Quan - I'm Sayin'
TTITLE12=The Game ft. Ice Cube Dr. Dre and will.i.am - Don't Trip
TTITLE13=Ty Dolla $ign ft. E-40 - Saved
TTITLE14=Nef The Pharoah - Big Tymin'
TTITLE15=Eric Bellinger ft. Fetty Wap and 2 Chainz - Valet
TTITLE16=Cap 1 ft. Jeremih, 2 Chainz and Verse Simmonds - Tonite
TTITLE17=DJ Luke Nasty - Might Be
TTITLE18=Big Will - Dabb On 'Em
TTITLE19=Johnny Gill ft. New Edition - This One's For Me And You
EXTD=
EXTT0=
EXTT1=
EXTT2=
EXTT3=
EXTT4=
EXTT5=
EXTT6=
EXTT7=
EXTT8=
EXTT9=
EXTT10=
EXTT11=
EXTT12=
EXTT13=
EXTT14=
EXTT15=
EXTT16=
EXTT17=
EXTT18=
EXTT19=
PLAYORDER=
